<svg width="100" height="100" viewBox="0 0 100 100" fill="none" xmlns="http://www.w3.org/2000/svg">
<path d="M49.851 95.3113C55.6213 95.3113 60.8463 93.0114 64.6288 89.2935C68.4112 85.5787 70.7511 80.4398 70.7511 74.768C70.7511 69.0963 68.4112 63.9604 64.6288 60.2426C60.8494 56.5247 55.6213 54.2247 49.851 54.2247C44.0808 54.2247 38.8558 56.5247 35.0733 60.2426C31.294 63.9604 28.9541 69.0963 28.9541 74.768C28.9541 80.4398 31.294 85.5756 35.0733 89.2935C38.8558 93.0114 44.0808 95.3113 49.851 95.3113ZM73.4555 48.1518C72.8043 49.2696 71.3524 49.6555 70.2152 49.0123C69.078 48.3723 68.6854 46.9452 69.3397 45.8273L93.505 4.6887H73.3901L52.0632 41.0008C51.4089 42.1186 49.957 42.5045 48.8197 41.8614C48.4334 41.6409 48.1343 41.3316 47.9287 40.9763L26.6142 4.6887H6.49933L30.5712 45.6711C31.2254 46.789 30.8329 48.2161 29.6956 48.8562C28.5584 49.4993 27.1096 49.1134 26.4553 47.9956L0.439312 3.70257C0.162016 3.31976 0 2.85119 0 2.34588C0 1.05044 1.06868 0.0030625 2.3835 0.0030625H27.982V0.01225C28.8046 0.01225 29.6022 0.431813 30.0415 1.18213L50.0068 35.1698L69.8569 1.36894C70.2339 0.560438 71.0627 0 72.0254 0H97.6239V0.00918751C98.0258 0.00918751 98.434 0.11025 98.8079 0.318501C99.9451 0.961627 100.338 2.38875 99.6834 3.50657L73.4586 48.1518H73.4555ZM67.9999 92.6102C63.3544 97.1764 56.9392 100 49.851 100C42.7628 100 36.3476 97.1764 31.7021 92.6102C27.0567 88.044 24.184 81.7383 24.184 74.7711C24.184 67.8039 27.0567 61.4982 31.7021 56.932C36.3476 52.3658 42.7628 49.5422 49.851 49.5422C56.9361 49.5422 63.3544 52.3658 67.9999 56.932C72.6454 61.4982 75.5181 67.8039 75.5181 74.7711C75.5181 81.7352 72.6454 88.044 67.9999 92.6102Z" fill="black"/>
</svg>
