<svg width="100" height="100" viewBox="0 0 100 100" fill="none" xmlns="http://www.w3.org/2000/svg">
<path d="M50.2212 25C56.7457 25 62.0348 19.4036 62.0348 12.5C62.0348 5.59644 56.7457 0 50.2212 0C43.6968 0 38.4077 5.59644 38.4077 12.5C38.4077 19.4036 43.6968 25 50.2212 25Z" fill="black"/>
<path d="M82.2321 8.87109C78.4213 23.7904 65.8456 35.0808 50.2213 35.0808C34.597 35.0808 22.0213 23.7904 18.2105 8.87109C3.34831 8.87109 -5.41655 27.0163 3.72939 39.113C7.54021 44.355 12.1132 48.7904 17.0672 52.4195C32.6916 63.7098 44.124 80.6453 49.8402 100C55.5564 81.0485 66.9889 63.7098 82.6132 52.4195C87.5673 48.7904 92.1402 44.355 95.951 39.113C105.478 27.0163 97.0943 8.87109 82.2321 8.87109Z" fill="black"/>
</svg>
