<svg width="100" height="100" viewBox="0 0 100 100" fill="none" xmlns="http://www.w3.org/2000/svg">
<path d="M100 31.2253V5.5336C100 2.37154 97.619 0 94.4444 0H68.6508C63.8889 0 59.127 1.58103 55.1587 3.95257C53.1746 5.13834 51.5873 6.71937 50 8.69565C45.6349 3.55731 38.8889 0 31.3492 0H5.55556C2.38095 0 0 2.37154 0 5.5336V31.2253C0 38.7352 3.57143 45.0593 8.73016 49.8024C3.57143 54.1502 0 60.8696 0 68.3794V94.0711C0 97.2332 2.38095 99.6047 5.55556 99.6047H31.3492C34.5238 99.6047 36.9048 97.2332 36.9048 94.0711C36.9048 90.9091 34.5238 88.5375 31.3492 88.5375H11.1111V68.3794C11.1111 61.2648 16.6667 55.7312 23.8095 55.7312H44.0476V75.8893C44.0476 89.3281 54.7619 100 68.254 100H94.0476C97.2222 100 99.6032 97.6285 99.6032 94.4664V68.7747C99.6032 61.2648 96.0317 54.9407 90.873 50.1976C96.8254 45.4545 100 38.7352 100 31.2253ZM24.2063 44.2688C17.0635 44.2688 11.5079 38.7352 11.5079 31.6206V11.0672H31.746C38.8889 11.0672 44.4444 16.6008 44.4444 23.7154V43.8735H24.2063V44.2688ZM88.8889 68.3794V88.5375H68.6508C61.5079 88.5375 55.9524 83.004 55.9524 75.8893V55.7312H76.1905C82.9365 55.336 88.8889 61.2648 88.8889 68.3794ZM55.5556 44.2688V24.1107C55.5556 19.7628 57.5397 15.8103 61.1111 13.4387C63.0952 11.8577 65.873 11.0672 68.254 11.0672H88.4921V31.2253C88.4921 38.3399 82.9365 43.8735 75.7937 43.8735H55.5556V44.2688Z" fill="black"/>
</svg>
