<svg width="100" height="100" viewBox="0 0 100 100" fill="none" xmlns="http://www.w3.org/2000/svg">
<path fill-rule="evenodd" clip-rule="evenodd" d="M10.6226 19.414C12.8204 16.4836 15.3845 13.9195 17.9486 11.7217C26.3735 21.9781 31.1354 35.1649 31.1354 49.4506C31.1354 61.5385 27.8387 72.8938 21.6116 82.4176C23.8094 75.8242 25.2746 68.4982 25.2746 60.8059C25.2746 45.055 19.7801 30.7693 10.6226 19.414Z" fill="black"/>
<path fill-rule="evenodd" clip-rule="evenodd" d="M2.19775 34.7985C3.66296 31.1355 5.12816 27.4725 7.32596 24.1758C15.0183 34.4322 19.7802 46.8864 19.7802 60.8058C19.7802 65.934 19.0476 70.6959 17.9487 75.0915C17.2161 59.7069 11.7216 45.7875 2.19775 34.7985Z" fill="black"/>
<path fill-rule="evenodd" clip-rule="evenodd" d="M12.0879 82.7839C4.7619 73.9927 0 62.6374 0 50.1832C0 47.2528 0.3663 44.3224 0.732601 41.7583C8.05861 51.6484 12.4542 64.1026 12.4542 77.6557C12.4542 79.4872 12.4542 80.9524 12.0879 82.7839Z" fill="black"/>
<path fill-rule="evenodd" clip-rule="evenodd" d="M99.2675 41.7583C100 44.3224 100 47.2528 100 50.1832C100 62.6374 95.6045 73.9927 87.9122 82.7839C87.9122 80.9524 87.5459 79.4872 87.5459 77.6557C87.5459 64.1026 91.9415 51.6484 99.2675 41.7583Z" fill="black"/>
<path fill-rule="evenodd" clip-rule="evenodd" d="M92.6738 24.1758C94.8717 27.4725 96.7032 31.1355 97.8021 34.7985C88.6445 45.7875 82.7837 59.7069 82.0511 75.0915C80.9522 70.6959 80.5859 65.934 80.5859 60.8058C80.5859 46.8864 84.9815 34.4322 92.6738 24.1758Z" fill="black"/>
<path fill-rule="evenodd" clip-rule="evenodd" d="M82.0511 11.7217C84.9815 13.9195 87.1793 16.4836 89.3771 19.414C80.5859 30.7693 75.0914 45.055 75.0914 60.8059C75.0914 68.4982 76.1903 75.8242 78.7544 82.4176C72.5273 72.8938 68.8643 61.5385 68.8643 49.4506C68.8643 35.1649 73.6262 21.9781 82.0511 11.7217Z" fill="black"/>
<path fill-rule="evenodd" clip-rule="evenodd" d="M50.1832 0C60.0733 0 69.5971 2.9304 77.6557 8.42491C68.4982 19.7802 63.37 34.0659 63.37 49.4506C63.37 65.5678 68.8645 79.8535 78.022 91.5751C70.3297 97.0696 60.4396 100 50.1832 100C39.5604 100 30.0366 97.0696 21.978 91.5751C31.1355 79.8535 36.9963 65.5678 36.9963 49.4506C36.9963 34.0659 31.5018 19.7802 22.3443 8.42491C30.4029 2.9304 39.9267 0 50.1832 0ZM29.6703 9.89011C37.7289 21.6117 41.7582 35.1648 41.7582 49.4506C41.7582 64.1026 37.3626 78.022 29.304 90.1099C35.5311 93.4066 42.8571 95.2381 50.1832 95.2381C57.5092 95.2381 64.4689 93.4066 71.0623 90.1099C62.6374 78.022 58.2418 64.1026 58.2418 49.4506C58.2418 35.1648 62.6374 21.6117 70.3297 9.89011C64.1026 6.59341 57.1429 5.12821 50.1832 5.12821C42.8571 5.12821 35.8974 6.59341 29.6703 9.89011Z" fill="black"/>
<path fill-rule="evenodd" clip-rule="evenodd" d="M31.502 89.3774C37.3628 92.3078 43.5899 93.4067 50.1833 93.4067C56.4104 93.4067 62.6375 92.3078 68.4983 89.3774C66.3005 86.0807 64.469 82.4177 62.6375 78.7547C58.9745 80.5862 54.5789 81.3188 50.1833 81.3188C45.4214 81.3188 41.3921 80.5862 37.3628 78.7547C35.8976 82.4177 33.6998 86.0807 31.502 89.3774ZM62.2712 21.2455C64.1027 17.5825 65.9342 13.9195 68.132 10.6228C62.2712 8.05871 56.4104 6.59351 50.1833 6.59351C43.9562 6.59351 37.7291 8.05871 32.2346 10.6228C34.4324 13.9195 36.2639 17.5825 37.7291 21.2455C41.3921 19.414 45.7877 18.6814 50.1833 18.6814C54.5789 18.6814 58.6082 19.414 62.2712 21.2455Z" fill="black"/>
<path fill-rule="evenodd" clip-rule="evenodd" d="M61.5383 76.1906C60.8057 73.9928 60.0731 71.795 59.7068 69.5972C56.7764 71.0624 53.4797 71.795 50.183 71.795C46.52 71.795 43.5896 71.0624 40.6592 69.5972C39.9266 71.795 39.194 73.9928 38.4614 76.1906C42.1244 77.6558 45.7874 78.3884 50.183 78.3884C54.2123 78.3884 58.2416 77.6558 61.5383 76.1906ZM59.3405 30.403C59.7068 28.2052 60.4394 26.0074 61.172 23.8096C57.8753 22.3444 54.2123 21.6118 50.183 21.6118C46.1537 21.6118 42.1244 22.3444 38.8277 23.8096C39.5603 26.0074 40.2929 28.2052 41.0255 30.403C43.5896 28.9378 46.8863 28.2052 50.183 28.2052C53.4797 28.2052 56.4101 28.9378 59.3405 30.403Z" fill="black"/>
</svg>
